# xmcd
#
# Track frame offsets:
#	150
#	18325
#	37523
#	52325
#	65548
#	92525
#	116310
#	130108
#	149200
#	167655
#	182330
#
# Disc length: 2619 seconds
#
# Revision: 1
# Processed by: cddbd v1.4PL0 Copyright (c) Steve Scherf et al.
# Submitted via: audiograbber 1.81.02
#
DISCID=8d0a390b
DTITLE=Albert Cummings - From The Heart
DYEAR=2002
DGENRE=Blues
TTITLE0=Your Own Way
TTITLE1=The Long Way
TTITLE2=Regular Man
TTITLE3=Tell It Like It Is
TTITLE4=Together As One
TTITLE5=Barrel House Blues
TTITLE6=I've Got Feelings Too
TTITLE7=Living On The Highway Now
TTITLE8=Ready As I'll Ever Be
TTITLE9=Rock Me Baby
TTITLE10=Beautiful Bride
EXTD=Featuring Chris Layton and Tommy Shannon (Double Trouble) with Reese Wynan
EXTD=s on keyboards and Johnny Moeller on rhythm guitar.
EXTT0=
EXTT1=
EXTT2=
EXTT3=
EXTT4=
EXTT5=
EXTT6=
EXTT7=
EXTT8=
EXTT9=
EXTT10=
PLAYORDER=
